{"title":"Paula Fernandes - Apaixonada Por Voce (Ao Vivo 2011 720p AC-3)","uid":6545692,"size":119173079,"categoryP":"video","categoryS":"music_videos","magnet":"?xt=urn:btih:bc1100e988e46bfeff653aa649ba0a65d7788dcb&amp;dn=Paula+Fernandes+-+Apaixonada+Por+Voce+%28Ao+Vivo+2011+720p+AC-3%29&amp;tr=udp%3A%2F%2Ftracker.openbittorrent.com%3A80&amp;tr=udp%3A%2F%2Fopen.demonii.com%3A1337&amp;tr=udp%3A%2F%2Ftracker.coppersurfer.tk%3A6969&amp;tr=udp%3A%2F%2Fexodus.desync.com%3A6969","seeders":0,"leechers":1,"uploader":"teckweb","files":1,"time":1310846616,"description":"Video \n\nID : 1 \nFormat : AVC \nFormat/Info : Advanced Video Codec \nFormat profile : &lt;a class=&quot;__cf_email__&quot; href=&quot;/cdn-cgi/l/email-protection&quot; data-cfemail=&quot;99d1f0fef1d9d5adb7a8&quot;&gt;[email&amp;#160;protected]&lt;/a&gt;&lt;script cf-hash='f9e31' type=&quot;text/javascript&quot;&gt;\n/* &lt;![CDATA[ */!function(){try{var t=&quot;currentScript&quot;in document?document.currentScript:function(){for(var t=document.getElementsByTagName(&quot;script&quot;),e=t.length;e--;)if(t[e].getAttribute(&quot;cf-hash&quot;))return t[e]}();if(t&amp;&amp;t.previousSibling){var e,r,n,i,c=t.previousSibling,a=c.getAttribute(&quot;data-cfemail&quot;);if(a){for(e=&quot;&quot;,r=parseInt(a.substr(0,2),16),n=2;a.length-n;n+=2)i=parseInt(a.substr(n,2),16)^r,e+=String.fromCharCode(i);e=document.createTextNode(e),c.parentNode.replaceChild(e,c)}}}catch(u){}}();/* ]]&gt; */&lt;/script&gt; \nFormat settings, CABAC : Yes \nFormat settings, ReFrames : 3 frames \nCodec ID : V_MPEG4/ISO/AVC \nDuration : 2mn 34s \nBit rate mode : Variable \nBit rate : 5 401 Kbps \nMaximum bit rate : 40.0 Mbps \nWidth : 1 280 pixels \nHeight : 720 pixels \nDisplay aspect ratio : 16:9 \nFrame rate : 23.976 fps \nColor space : YUV \nChroma subsampling : 4:2:0 \nBit depth : 8 bits \nScan type : Progressive \nBits/(Pixel*Frame) : 0.244 \nStream size : 99.6 MiB (88%) \nLanguage : English \nColor primaries : BT.709-5, BT.1361, IEC 61966-2-4, SMPTE RP177 \nTransfer characteristics : BT.709-5, BT.1361 \nMatrix coefficients : BT.709-5, BT.1361, IEC 61966-2-4 709, SMPTE RP177 \n\n\n\nAudio \n\nID : 2 \nFormat : AC-3 \nFormat/Info : Audio Coding 3 \nMode extension : CM (complete main) \nCodec ID : A_AC3 \nDuration : 2mn 34s \nBit rate mode : Constant \nBit rate : 640 Kbps \nChannel(s) : 6 channels \nChannel positions : Front: L C R, Side: L R, LFE \nSampling rate : 48.0 KHz \nBit depth : 16 bits \nCompression mode : Lossy \nStream size : 11.8 MiB (10%) \nLanguage : Portuguese \n","torrent":{"xt":"urn:btih:bc1100e988e46bfeff653aa649ba0a65d7788dcb","amp;dn":"Paula+Fernandes+-+Apaixonada+Por+Voce+%28Ao+Vivo+2011+720p+AC-3%29","amp;tr":["udp%3A%2F%2Ftracker.openbittorrent.com%3A80","udp%3A%2F%2Fopen.demonii.com%3A1337","udp%3A%2F%2Ftracker.coppersurfer.tk%3A6969","udp%3A%2F%2Fexodus.desync.com%3A6969"],"infoHash":"bc1100e988e46bfeff653aa649ba0a65d7788dcb","infoHashBuffer":{"type":"Buffer","data":[188,17,0,233,136,228,107,254,255,101,58,166,73,186,10,101,215,120,141,203]},"announce":[],"urlList":[]}}